<mxfile host="65bd71144e">
    <diagram id="RZ0Zq43qdeX1wLh4gk3h" name="Page-1">
        <mxGraphModel dx="801" dy="419" grid="1" gridSize="10" guides="1" tooltips="1" connect="1" arrows="1" fold="1" page="1" pageScale="1" pageWidth="850" pageHeight="1100" math="0" shadow="0">
            <root>
                <mxCell id="0"/>
                <mxCell id="1" parent="0"/>
                <mxCell id="2" value="" style="whiteSpace=wrap;html=1;aspect=fixed;" vertex="1" parent="1">
                    <mxGeometry x="110" y="110" width="240" height="240" as="geometry"/>
                </mxCell>
                <mxCell id="3" value="clg 1" style="text;html=1;align=center;verticalAlign=middle;resizable=0;points=[];autosize=1;strokeColor=none;fillColor=none;" vertex="1" parent="1">
                    <mxGeometry x="540" y="60" width="50" height="30" as="geometry"/>
                </mxCell>
                <mxCell id="4" value="clg 2" style="text;html=1;align=center;verticalAlign=middle;resizable=0;points=[];autosize=1;strokeColor=none;fillColor=none;" vertex="1" parent="1">
                    <mxGeometry x="540" y="80" width="50" height="30" as="geometry"/>
                </mxCell>
                <mxCell id="6" value="clg 4" style="text;html=1;align=center;verticalAlign=middle;resizable=0;points=[];autosize=1;strokeColor=none;fillColor=none;" vertex="1" parent="1">
                    <mxGeometry x="540" y="100" width="50" height="30" as="geometry"/>
                </mxCell>
                <mxCell id="7" value="event loop" style="whiteSpace=wrap;html=1;aspect=fixed;" vertex="1" parent="1">
                    <mxGeometry x="460" y="230" width="140" height="140" as="geometry"/>
                </mxCell>
                <mxCell id="5" value="setTimeOut" style="text;html=1;align=center;verticalAlign=middle;resizable=0;points=[];autosize=1;strokeColor=none;fillColor=none;" vertex="1" parent="1">
                    <mxGeometry x="510" y="120" width="90" height="30" as="geometry"/>
                </mxCell>
            </root>
        </mxGraphModel>
    </diagram>
</mxfile>